<svg width="27" height="28" viewBox="0 0 27 28" fill="none" xmlns="http://www.w3.org/2000/svg">
<path d="M4.70199 5.23714H7.98153L10.1679 3.05078H16.727L18.9134 5.23714H22.1929C22.7728 5.23714 23.3289 5.46749 23.7389 5.87752C24.1489 6.28754 24.3793 6.84365 24.3793 7.42351V20.5417C24.3793 21.1215 24.1489 21.6777 23.7389 22.0877C23.3289 22.4977 22.7728 22.7281 22.1929 22.7281H4.70199C4.12213 22.7281 3.56602 22.4977 3.156 22.0877C2.74597 21.6777 2.51563 21.1215 2.51562 20.5417V7.42351C2.51562 6.84365 2.74597 6.28754 3.156 5.87752C3.56602 5.46749 4.12213 5.23714 4.70199 5.23714ZM13.4474 8.51669C11.9978 8.51669 10.6075 9.09256 9.58246 10.1176C8.5574 11.1427 7.98153 12.533 7.98153 13.9826C7.98153 15.4322 8.5574 16.8225 9.58246 17.8476C10.6075 18.8726 11.9978 19.4485 13.4474 19.4485C14.8971 19.4485 16.2874 18.8726 17.3124 17.8476C18.3375 16.8225 18.9134 15.4322 18.9134 13.9826C18.9134 12.533 18.3375 11.1427 17.3124 10.1176C16.2874 9.09256 14.8971 8.51669 13.4474 8.51669ZM13.4474 10.7031C14.3172 10.7031 15.1514 11.0486 15.7664 11.6636C16.3815 12.2786 16.727 13.1128 16.727 13.9826C16.727 14.8524 16.3815 15.6866 15.7664 16.3016C15.1514 16.9166 14.3172 17.2621 13.4474 17.2621C12.5777 17.2621 11.7435 16.9166 11.1285 16.3016C10.5134 15.6866 10.1679 14.8524 10.1679 13.9826C10.1679 13.1128 10.5134 12.2786 11.1285 11.6636C11.7435 11.0486 12.5777 10.7031 13.4474 10.7031Z" fill="white"/>
</svg>
